<svg xmlns="http://www.w3.org/2000/svg" width="256" height="256" viewBox="0 0 256 256"><ellipse cx="128" cy="228" rx="96" ry="12" fill="#1F1D1A" opacity="0.14"/><circle cx="128" cy="122" r="102" fill="#1F1D1A"/><path d="M128 122 L36 122 A92 92 0 0 1 128 30 Z" fill="#5FD08E"/><path d="M128 122 L128 30 A92 92 0 0 1 220 122 Z" fill="#A8342A"/><path d="M128 122 L220 122 A92 92 0 0 1 128 214 Z" fill="#23488F"/><path d="M128 122 L128 214 A92 92 0 0 1 36 122 Z" fill="#C7921F"/><path d="M28 122 H228 M128 22 V222" stroke="#1F1D1A" stroke-width="10"/><circle cx="128" cy="122" r="40" fill="#2A2723" stroke="#1F1D1A" stroke-width="6"/><path d="M58 96 A72 72 0 0 1 102 52" fill="none" stroke="#FFFCF6" stroke-width="7" stroke-linecap="round" opacity="0.55"/><circle cx="128" cy="122" r="12" fill="#FFFCF6" opacity="0.2"/></svg>
