<svg xmlns="http://www.w3.org/2000/svg" width="512" height="512" viewBox="0 0 256 256"><path d="M128 230 C80 204 42 156 50 112 C56 80 94 70 128 84 C162 70 200 80 206 112 C214 156 176 204 128 230 Z" fill="#D8352A" stroke="#1F1D1A" stroke-width="8" stroke-linejoin="round"/><path d="M72 112 C70 140 86 170 110 190" stroke="#FFFFFF" stroke-opacity="0.35" stroke-width="9" fill="none" stroke-linecap="round"/><g fill="#FBE6A6"><ellipse cx="96" cy="118" rx="4.5" ry="7"/><ellipse cx="128" cy="112" rx="4.5" ry="7"/><ellipse cx="160" cy="118" rx="4.5" ry="7"/><ellipse cx="184" cy="136" rx="4.5" ry="7"/><ellipse cx="112" cy="146" rx="4.5" ry="7"/><ellipse cx="146" cy="146" rx="4.5" ry="7"/><ellipse cx="80" cy="146" rx="4.5" ry="7"/><ellipse cx="128" cy="178" rx="4.5" ry="7"/><ellipse cx="98" cy="172" rx="4.5" ry="7"/><ellipse cx="160" cy="174" rx="4.5" ry="7"/><ellipse cx="128" cy="206" rx="4.5" ry="7"/><ellipse cx="176" cy="160" rx="4.5" ry="7"/></g><path d="M128 92 L100 66 L118 72 L112 46 L128 64 L144 46 L138 72 L156 66 Z" fill="#2F7D5B" stroke="#1F1D1A" stroke-width="7" stroke-linejoin="round"/><path d="M128 60 L128 30" stroke="#1F1D1A" stroke-width="8" stroke-linecap="round"/></svg>
