<svg xmlns="http://www.w3.org/2000/svg" width="256" height="256" viewBox="0 0 256 256"><g fill="#FFFFFF" stroke="#FFFFFF"><path d="M70 214 C96 170 120 120 186 42" fill="none" stroke-width="12" stroke-linecap="round"/><ellipse cx="82" cy="164" rx="24" ry="10" transform="rotate(-95 82 164)"/><ellipse cx="109" cy="197" rx="24" ry="10" transform="rotate(15 109 197)"/><ellipse cx="93" cy="135" rx="24" ry="10" transform="rotate(-105 93 135)"/><ellipse cx="126" cy="162" rx="24" ry="10" transform="rotate(5 126 162)"/><ellipse cx="114" cy="106" rx="24" ry="10" transform="rotate(-95 114 106)"/><ellipse cx="141" cy="139" rx="24" ry="10" transform="rotate(15 141 139)"/><ellipse cx="127" cy="81" rx="24" ry="10" transform="rotate(-105 127 81)"/><ellipse cx="160" cy="108" rx="24" ry="10" transform="rotate(5 160 108)"/><ellipse cx="152" cy="56" rx="24" ry="10" transform="rotate(-95 152 56)"/><ellipse cx="179" cy="89" rx="24" ry="10" transform="rotate(15 179 89)"/><ellipse cx="165" cy="35" rx="24" ry="10" transform="rotate(-105 165 35)"/><ellipse cx="198" cy="62" rx="24" ry="10" transform="rotate(5 198 62)"/><ellipse cx="190" cy="38" rx="22" ry="10" transform="rotate(-50 190 38)"/></g></svg>