<svg xmlns="http://www.w3.org/2000/svg" width="256" height="256" viewBox="0 0 256 256"><ellipse cx="128" cy="222" rx="100" ry="12" fill="#1F1D1A" opacity="0.14"/><path d="M20 190 A108 108 0 0 1 236 190 Z" fill="#FFFCF6" stroke="#1F1D1A" stroke-width="8" stroke-linejoin="round"/><path d="M128 190 L94.6 87.3 A108 108 0 0 1 109.2 83.6 Z" fill="#F2B233"/><path d="M128 190 L109.2 83.6 A108 108 0 0 1 124.2 82.1 Z" fill="#C8392B"/><path d="M128 190 L124.2 82.1 A108 108 0 0 1 139.3 82.6 Z" fill="#2B59C3"/><path d="M128 190 L139.3 82.6 A108 108 0 0 1 154.1 85.2 Z" fill="#C8392B"/><path d="M128 190 L154.1 85.2 A108 108 0 0 1 168.5 90.0 Z" fill="#F2B233"/><path d="M20 190 A108 108 0 0 1 236 190 Z" fill="none" stroke="#1F1D1A" stroke-width="8" stroke-linejoin="round"/><path d="M128 190 L180 96" stroke="#1F1D1A" stroke-width="9" stroke-linecap="round"/><circle cx="128" cy="190" r="18" fill="#2F7D5B" stroke="#1F1D1A" stroke-width="7"/></svg>
